<?xml version="1.0" encoding="UTF-8"?>
<svg width="370px" height="370px" viewBox="0 0 370 370" version="1.1" xmlns="http://www.w3.org/2000/svg" xmlns:xlink="http://www.w3.org/1999/xlink">
    <title>Combined Shape</title>
    <g id="App-MVP" stroke="none" stroke-width="1" fill="none" fill-rule="evenodd">
        <g id="Artboard" fill="#393745" fill-rule="nonzero">
            <path d="M370,370 L0,370 L0,-2.84217094e-14 L370,-2.84217094e-14 L370,370 Z M122.829,246.664 L1,246.664 L1,369 L122.829,369 L122.829,246.664 Z M246.659,246.664 L123.829,246.664 L123.829,369 L246.659,369 L246.659,246.664 Z M369,246.664 L247.659,246.664 L247.659,369 L369,369 L369,246.664 Z M122.829,124.325 L1,124.325 L1,245.664 L122.829,245.664 L122.829,124.325 Z M246.659,124.325 L123.829,124.325 L123.829,245.664 L246.659,245.664 L246.659,124.325 Z M369,124.325 L247.659,124.325 L247.659,245.664 L369,245.664 L369,124.325 Z M122.829,1 L1,1 L1,123.325 L122.829,123.325 L122.829,1 Z M246.659,1 L123.829,1 L123.829,123.325 L246.659,123.325 L246.659,1 Z M369,1 L247.659,1 L247.659,123.325 L369,123.325 L369,1 Z" id="Combined-Shape"></path>
        </g>
    </g>
</svg>